<svg id="Layer_1" data-name="Layer 1" xmlns="http://www.w3.org/2000/svg" viewBox="0 0 4962.2 1124"><defs><style>.cls-1,.cls-4{fill:none;}.cls-2{isolation:isolate;}.cls-3{fill:#343f49;}.cls-4{stroke:#343f49;stroke-miterlimit:10;stroke-width:21px;}</style></defs><rect class="cls-1" x="709" y="162.4" width="634.8" height="568.6"/><g class="cls-2"><path class="cls-3" d="M1280.72,953.69V465.45h71l266.45,381.37V465.45H1687V953.69h-70.27l-267.18-382.1v382.1Z" transform="translate(-516.1 -303.1)"/></g><rect class="cls-1" x="2038.6" y="161.4" width="634.8" height="568.6"/><g class="cls-2"><path class="cls-3" d="M2610.33,952.71V464.47h307.44v62.22H2680.6v142h178.61v63H2680.6V889.76h254.74v63Z" transform="translate(-516.1 -303.1)"/></g><rect class="cls-1" x="2636.4" y="161.7" width="538.1" height="568.6"/><g class="cls-2"><path class="cls-3" d="M3208.11,953V464.8H3364q62.2,0,99.55,21.22t53.8,54.17q16.47,32.94,16.47,68.08,0,46.85-22,82.71t-68.07,53.44L3558,953H3479L3374.28,753.2h-98.09V953Zm68.08-259.13h93.69q45.39,0,68.81-22.69t23.43-60.76q0-40.25-24.89-62.58t-68.81-22.33h-92.23Z" transform="translate(-516.1 -303.1)"/></g><rect class="cls-1" x="3235.7" y="164" width="538.1" height="568.6"/><g class="cls-2"><path class="cls-3" d="M3778.91,882.17l49.78-45.38a326.68,326.68,0,0,0,32.21,30.74,164.35,164.35,0,0,0,42.82,25.62q24.51,10.26,56,10.25,48.32,0,75.39-22.33t27.09-58.92q0-41-30.38-60.76t-88.94-32.21Q3880.66,716,3841.5,681.24t-39.16-92.6a126,126,0,0,1,18.3-66.25q18.29-30.36,54.9-49t90-18.67q47.58,0,78.69,12.81t48.68,28.92q17.56,16.11,24.89,26.35L4071,566q-5.86-7.32-19.76-19t-35.5-20.86q-21.6-9.13-53.07-9.15-30.75,0-50.51,10.62t-29.28,26.35q-9.53,15.75-9.52,32.57,0,35.88,30,53.8T3989,670.62a280,280,0,0,1,69.54,25.26,146.6,146.6,0,0,1,53.8,47.58q20.86,30.38,20.86,80.15,0,42.46-22.69,74.66T4049,949.15q-38.8,18.66-87.84,18.66-45.39,0-80.88-13.17t-60.76-33.31Q3794.28,901.21,3778.91,882.17Z" transform="translate(-516.1 -303.1)"/></g><rect class="cls-1" x="3842.9" y="162" width="538.1" height="568.6"/><g class="cls-2"><path class="cls-3" d="M4414.64,953.37V465.13h307.44v62.22H4484.91v142h178.61v63H4484.91V890.42h254.73v63Z" transform="translate(-516.1 -303.1)"/></g><rect class="cls-1" x="4424.1" y="161.7" width="538.1" height="568.6"/><g class="cls-2"><path class="cls-3" d="M4995.85,953V464.79h71L5333.3,846.17V464.79h68.81V953h-70.27L5064.66,570.93V953Z" transform="translate(-516.1 -303.1)"/></g><circle id="circle" class="cls-4" cx="4350.7" cy="65.4" r="54.9"/><g id="D"><path class="cls-3" d="M2312.9,846.2q34-54.15,34-136.2,0-84.9-34-139.1t-93.7-80.2q-59.7-25.95-137.2-26H1958.9l30.9,63h87.8q96.6,0,146,47.2T2273,711.4q0,88.65-50.9,133.6c-16.8,14.8-36.8,26-60.2,33.5l28.8,58.7a285.48,285.48,0,0,0,28.1-10.6Q2279,900.35,2312.9,846.2Z" transform="translate(-516.1 -303.1)"/></g><g id="A"><polygon class="cls-3" points="167.3 454.4 246.3 295.6 390.9 586.5 233 586.5 264.7 650.2 492.5 650.2 246.3 152.9 0 650.2 70 650.2 167.3 454.4"/></g><g id="Beauty"><path class="cls-3" d="M2278,1423.4V1277.3h49.5c10.1,0,18.4,1.7,25,5s11.5,7.8,14.7,13.5a37.2,37.2,0,0,1,4.8,18.7,31.61,31.61,0,0,1-3.9,16,33.1,33.1,0,0,1-9.5,10.7,27.34,27.34,0,0,1-10.4,4.8,47.26,47.26,0,0,1,9.9,2.8,41.46,41.46,0,0,1,10.4,6.2,30.61,30.61,0,0,1,8.1,10.7,38.83,38.83,0,0,1,3.2,16.5c0,10.4-2.4,18.5-7.3,24.5s-11.5,10.2-19.7,12.7a95.24,95.24,0,0,1-27.7,3.7H2278Zm20.4-85.2h26.1a37.06,37.06,0,0,0,12.8-2.2,23.4,23.4,0,0,0,10.3-7c2.7-3.2,4.1-7.4,4.1-12.7,0-5.8-1.4-10.3-4.1-13.2a19.53,19.53,0,0,0-10.3-6,54.65,54.65,0,0,0-12.8-1.5h-26.1Zm0,67h25.4a94.07,94.07,0,0,0,11.7-.7,35.73,35.73,0,0,0,11.3-3.1,19.86,19.86,0,0,0,8.5-7.2q3.3-4.8,3.3-12.9,0-10.5-5.4-15.9a27.56,27.56,0,0,0-13-7.3,60.86,60.86,0,0,0-15.1-2h-26.7Z" transform="translate(-516.1 -303.1)"/><path class="cls-3" d="M2538.7,1423.4V1277.3h92v18.6h-71v42.5h53.4v18.8h-53.4v47.3h76.2v18.8h-97.2Z" transform="translate(-516.1 -303.1)"/><path class="cls-3" d="M2779.6,1423.4l57.2-146.1h21.5l57.2,146.1h-23.4l-15.1-40.7h-60l-15.1,40.7Zm43.3-58.5h47.5l-23.7-64.2Z" transform="translate(-516.1 -303.1)"/><path class="cls-3" d="M3056.1,1367.7v-90.4h21v85.4a74.22,74.22,0,0,0,3.3,23.2,30,30,0,0,0,11.4,15.7c5.4,3.7,12.9,5.6,22.6,5.6s17.1-1.9,22.4-5.6a29.62,29.62,0,0,0,11.3-15.7,74.67,74.67,0,0,0,3.3-23.2v-85.4h21v90.4a71.68,71.68,0,0,1-6.2,30.1,48.8,48.8,0,0,1-19.1,21.4c-8.6,5.3-19.5,7.9-32.7,7.9s-24.2-2.6-32.8-7.9a49,49,0,0,1-19.2-21.4A69.89,69.89,0,0,1,3056.1,1367.7Z" transform="translate(-516.1 -303.1)"/><path class="cls-3" d="M3377,1423.4V1295.7h-52.3v-18.4h125.5v18.4H3398v127.7Z" transform="translate(-516.1 -303.1)"/><path class="cls-3" d="M3646.1,1423.4v-65.3l-50.4-80.8h23.4l38.1,62.4,38.1-62.4h22.6l-50.6,80.8v65.3Z" transform="translate(-516.1 -303.1)"/></g></svg>